<?xml version="1.0" standalone="no"?>
<!DOCTYPE svg PUBLIC "-//W3C//DTD SVG 20010904//EN"
 "http://www.w3.org/TR/2001/REC-SVG-20010904/DTD/svg10.dtd">
<svg version="1.0" xmlns="http://www.w3.org/2000/svg"
 width="256.000000pt" height="256.000000pt" viewBox="0 0 256.000000 256.000000"
 preserveAspectRatio="xMidYMid meet">

<g transform="translate(0.000000,256.000000) scale(0.100000,-0.100000)"
fill="#000000" stroke="none">
<path d="M425 2550 c-180 -37 -337 -174 -397 -350 l-23 -65 0 -855 0 -855 23
-65 c51 -150 174 -274 328 -332 l59 -23 865 0 865 0 59 23 c154 58 277 182
328 332 l23 65 0 855 0 855 -23 65 c-51 150 -174 274 -328 332 l-59 23 -840 2
c-462 0 -858 -3 -880 -7z m1103 -370 c330 -80 604 -357 689 -697 26 -104 23
-352 -5 -458 -46 -167 -138 -320 -269 -446 -85 -81 -141 -120 -248 -170 -85
-40 -135 -49 -153 -26 -6 7 -12 89 -14 198 -3 181 -4 186 -29 225 l-27 40 62
11 c101 18 168 49 233 108 71 64 100 119 120 230 24 132 7 237 -52 325 -29 43
-33 55 -25 76 13 34 11 130 -4 179 -12 39 -14 40 -54 39 -44 -1 -100 -22 -173
-66 l-46 -28 -69 15 c-88 19 -249 19 -337 0 -67 -14 -69 -14 -105 10 -51 33
-170 77 -200 73 -22 -3 -28 -11 -39 -53 -15 -60 -16 -118 -3 -164 8 -28 6 -38
-14 -65 -62 -82 -83 -181 -66 -308 16 -112 45 -183 98 -240 56 -60 163 -115
254 -130 66 -12 66 -12 51 -35 -9 -13 -21 -40 -28 -61 -16 -47 -45 -62 -118
-62 -76 0 -104 16 -166 94 -28 36 -65 73 -82 82 -34 17 -93 23 -106 11 -4 -4
18 -31 49 -60 38 -34 65 -71 82 -108 26 -59 79 -114 124 -126 15 -5 66 -8 115
-8 l87 0 0 -96 c0 -60 -4 -99 -12 -107 -22 -22 -70 -13 -162 31 -250 120 -440
354 -508 625 -31 123 -31 331 0 454 80 323 352 603 663 683 152 40 338 42 487
5z"/>
</g>
</svg>
