<?xml version="1.0" standalone="no"?>
<!DOCTYPE svg PUBLIC "-//W3C//DTD SVG 20010904//EN"
 "http://www.w3.org/TR/2001/REC-SVG-20010904/DTD/svg10.dtd">
<svg version="1.0" xmlns="http://www.w3.org/2000/svg"
 width="256.000000pt" height="256.000000pt" viewBox="0 0 256.000000 256.000000"
 preserveAspectRatio="xMidYMid meet">

<g transform="translate(0.000000,256.000000) scale(0.100000,-0.100000)"
fill="#000000" stroke="none">
<path d="M187 2549 c-81 -19 -143 -73 -168 -146 -21 -56 -21 -2190 0 -2246 17
-50 64 -103 115 -130 l41 -22 1105 0 1105 0 51 28 c60 33 99 88 114 161 7 35
10 391 8 1116 -3 1001 -4 1067 -21 1105 -23 51 -61 91 -112 118 l-40 22 -1080
2 c-615 1 -1096 -3 -1118 -8z m486 -285 c192 -65 243 -329 90 -464 -119 -104
-304 -86 -400 39 -39 50 -53 97 -53 177 0 181 186 309 363 248z m1270 -639
c170 -44 262 -138 318 -325 22 -72 23 -92 27 -528 3 -418 2 -455 -14 -473 -16
-17 -33 -19 -193 -19 -141 0 -181 3 -198 15 -21 15 -21 20 -25 397 -3 340 -6
389 -22 433 -37 102 -94 144 -192 145 -94 0 -158 -44 -203 -139 l-26 -56 -3
-360 c-1 -198 -4 -370 -7 -382 -11 -50 -24 -53 -211 -53 -161 0 -176 2 -194
20 -20 20 -20 33 -20 650 0 617 0 630 20 650 18 18 33 20 193 20 94 0 177 -4
183 -8 21 -13 34 -51 34 -95 l0 -43 49 47 c59 56 109 84 189 103 77 19 224 19
295 1z m-1172 -24 l24 -19 0 -632 0 -632 -24 -19 c-21 -17 -41 -19 -192 -19
-160 0 -169 1 -189 22 -20 21 -20 32 -20 647 l0 625 22 23 c21 22 27 23 189
23 149 0 169 -2 190 -19z"/>
</g>
</svg>
