<svg xmlns="http://www.w3.org/2000/svg" version="1.1" xmlns:xlink="http://www.w3.org/1999/xlink" xmlns:svgjs="http://svgjs.dev/svgjs" viewBox="0 0 800 800"><defs><linearGradient x1="50%" y1="0%" x2="50%" y2="100%" id="nnneon-grad"><stop stop-color="hsl(157, 100%, 54%)" stop-opacity="1" offset="0%"></stop><stop stop-color="hsl(331, 87%, 61%)" stop-opacity="1" offset="100%"></stop></linearGradient><filter id="nnneon-filter" x="-100%" y="-100%" width="400%" height="400%" filterUnits="objectBoundingBox" primitiveUnits="userSpaceOnUse" color-interpolation-filters="sRGB">
	<feGaussianBlur stdDeviation="46 41" x="0%" y="0%" width="100%" height="100%" in="SourceGraphic" edgeMode="none" result="blur"></feGaussianBlur></filter><filter id="nnneon-filter2" x="-100%" y="-100%" width="400%" height="400%" filterUnits="objectBoundingBox" primitiveUnits="userSpaceOnUse" color-interpolation-filters="sRGB">
	<feGaussianBlur stdDeviation="27 17" x="0%" y="0%" width="100%" height="100%" in="SourceGraphic" edgeMode="none" result="blur"></feGaussianBlur></filter></defs><g stroke-width="44" stroke="url(#nnneon-grad)" fill="none" transform="rotate(180, 400, 400)"><path d="M376.7520920940034 64.70195341620393C391.13791639051146 56.397789811303056 408.8621446446448 56.397789811303056 423.24796894115286 64.70427821004631L678.7521113916085 212.219421889155C693.1379356881166 220.52358549405585 702.0000498151833 235.87419923514227 702.0000498151833 252.48485123878652V547.5151385970038C702.0000498151833 564.125790600648 693.1379356881166 579.4764043417345 678.7521113916085 587.7828927404776L423.24796894115286 735.2980364195862C408.8621446446448 743.6022000244872 391.13791639051146 743.6022000244872 376.7520920940034 735.2957116257439L121.24794964354771 587.7805679466353C106.8621253470397 579.4764043417345 98.00001121997298 564.125790600648 98.00001121997298 547.5151385970038V252.48485123878652C98.00001121997298 235.87419923514227 106.8621253470397 220.52358549405585 121.24794964354771 212.21709709531268L376.7520920940034 64.70195341620393Z " filter="url(#nnneon-filter)"></path><path d="M398.7520920940034 64.70195341620393C413.13791639051146 56.397789811303056 430.8621446446448 56.397789811303056 445.24796894115286 64.70427821004631L700.7521113916085 212.219421889155C715.1379356881166 220.52358549405585 724.0000498151833 235.87419923514227 724.0000498151833 252.48485123878652V547.5151385970038C724.0000498151833 564.125790600648 715.1379356881166 579.4764043417345 700.7521113916085 587.7828927404776L445.24796894115286 735.2980364195862C430.8621446446448 743.6022000244872 413.13791639051146 743.6022000244872 398.7520920940034 735.2957116257439L143.2479496435477 587.7805679466353C128.8621253470397 579.4764043417345 120.00001121997298 564.125790600648 120.00001121997298 547.5151385970038V252.48485123878652C120.00001121997298 235.87419923514227 128.8621253470397 220.52358549405585 143.2479496435477 212.21709709531268L398.7520920940034 64.70195341620393Z " filter="url(#nnneon-filter2)" opacity="0.37"></path><path d="M354.7520920940034 64.70195341620393C369.13791639051146 56.397789811303056 386.8621446446448 56.397789811303056 401.24796894115286 64.70427821004631L656.7521113916085 212.219421889155C671.1379356881166 220.52358549405585 680.0000498151833 235.87419923514227 680.0000498151833 252.48485123878652V547.5151385970038C680.0000498151833 564.125790600648 671.1379356881166 579.4764043417345 656.7521113916085 587.7828927404776L401.24796894115286 735.2980364195862C386.8621446446448 743.6022000244872 369.13791639051146 743.6022000244872 354.7520920940034 735.2957116257439L99.24794964354771 587.7805679466353C84.8621253470397 579.4764043417345 76.00001121997298 564.125790600648 76.00001121997298 547.5151385970038V252.48485123878652C76.00001121997298 235.87419923514227 84.8621253470397 220.52358549405585 99.24794964354771 212.21709709531268L354.7520920940034 64.70195341620393Z " filter="url(#nnneon-filter2)" opacity="0.37"></path><path d="M376.7520920940034 64.70195341620393C391.13791639051146 56.397789811303056 408.8621446446448 56.397789811303056 423.24796894115286 64.70427821004631L678.7521113916085 212.219421889155C693.1379356881166 220.52358549405585 702.0000498151833 235.87419923514227 702.0000498151833 252.48485123878652V547.5151385970038C702.0000498151833 564.125790600648 693.1379356881166 579.4764043417345 678.7521113916085 587.7828927404776L423.24796894115286 735.2980364195862C408.8621446446448 743.6022000244872 391.13791639051146 743.6022000244872 376.7520920940034 735.2957116257439L121.24794964354771 587.7805679466353C106.8621253470397 579.4764043417345 98.00001121997298 564.125790600648 98.00001121997298 547.5151385970038V252.48485123878652C98.00001121997298 235.87419923514227 106.8621253470397 220.52358549405585 121.24794964354771 212.21709709531268L376.7520920940034 64.70195341620393Z "></path></g></svg>