<?xml version="1.0" standalone="no"?>
<!DOCTYPE svg PUBLIC "-//W3C//DTD SVG 20010904//EN"
 "http://www.w3.org/TR/2001/REC-SVG-20010904/DTD/svg10.dtd">
<svg version="1.0" xmlns="http://www.w3.org/2000/svg"
 width="512.000000pt" height="512.000000pt" viewBox="0 0 512.000000 512.000000"
 preserveAspectRatio="xMidYMid meet">

<g transform="translate(0.000000,512.000000) scale(0.100000,-0.100000)"
fill="#000000" stroke="none">
<path d="M2370 5114 c-19 -2 -78 -9 -130 -15 -791 -90 -1522 -586 -1924 -1305
-146 -262 -252 -588 -297 -914 -18 -125 -18 -515 0 -640 105 -762 511 -1409
1146 -1826 609 -400 1377 -517 2090 -317 929 260 1646 1043 1819 1987 156 845
-103 1682 -705 2285 -399 398 -879 639 -1449 726 -100 15 -472 28 -550 19z
m395 -304 c498 -46 977 -263 1348 -610 303 -284 542 -695 640 -1101 49 -201
61 -309 61 -539 0 -230 -12 -338 -61 -539 -78 -325 -246 -653 -471 -921 -296
-354 -732 -624 -1183 -733 -201 -49 -309 -61 -539 -61 -231 0 -338 12 -540 61
-396 96 -810 334 -1087 626 -456 480 -682 1125 -623 1772 54 583 345 1143 790
1518 464 390 1069 582 1665 527z"/>
<path d="M2318 3715 c-491 -70 -929 -339 -1194 -732 -70 -104 -145 -250 -178
-349 l-25 -76 20 -62 c33 -100 133 -295 200 -391 130 -183 354 -381 559 -493
260 -142 506 -209 805 -219 456 -15 873 133 1220 434 192 167 372 431 449 661
l25 73 -23 62 c-71 188 -205 401 -348 552 -261 276 -565 445 -943 525 -131 28
-425 36 -567 15z m547 -315 c441 -100 778 -350 960 -713 30 -60 55 -117 55
-127 0 -10 -25 -67 -55 -127 -186 -371 -543 -629 -990 -720 -126 -25 -424 -25
-550 0 -356 71 -671 262 -871 526 -65 87 -174 287 -174 321 0 34 109 234 175
322 198 262 514 454 860 522 122 23 137 24 325 21 130 -3 198 -9 265 -25z"/>
<path d="M2470 3159 c-127 -19 -259 -89 -349 -184 -225 -240 -219 -608 14
-840 238 -239 613 -239 850 -1 119 120 178 261 178 426 0 367 -330 652 -693
599z m227 -330 c106 -51 166 -149 166 -270 0 -170 -133 -302 -303 -302 -121 0
-218 60 -271 169 -26 53 -32 76 -32 133 0 114 56 213 152 264 98 54 185 55
288 6z"/>
</g>
</svg>
