<?xml version="1.0" standalone="no"?>
<!DOCTYPE svg PUBLIC "-//W3C//DTD SVG 20010904//EN"
 "http://www.w3.org/TR/2001/REC-SVG-20010904/DTD/svg10.dtd">
<svg version="1.0" xmlns="http://www.w3.org/2000/svg"
 width="512.000000pt" height="512.000000pt" viewBox="0 0 512.000000 512.000000"
 preserveAspectRatio="xMidYMid meet">

<g transform="translate(0.000000,512.000000) scale(0.100000,-0.100000)"
fill="#000000" stroke="none">
<path d="M2375 4900 c-446 -38 -864 -196 -1223 -464 -137 -102 -366 -331 -468
-468 -277 -372 -430 -785 -465 -1257 -11 -154 -8 -194 21 -251 80 -157 315
-143 384 22 9 21 16 66 16 102 0 35 5 110 11 167 58 575 373 1095 853 1411
758 499 1745 402 2404 -236 l84 -81 -324 -5 -325 -5 -41 -28 c-60 -39 -93 -94
-99 -164 -7 -80 31 -154 102 -198 l48 -30 591 0 591 0 45 25 c24 14 58 45 75
68 l30 44 3 586 c2 399 0 599 -8 624 -43 147 -250 191 -357 76 -49 -53 -53
-78 -53 -378 0 -154 -4 -280 -8 -280 -4 0 -34 27 -67 61 -171 174 -437 355
-685 464 -345 154 -769 226 -1135 195z"/>
<path d="M4605 2753 c-85 -44 -124 -113 -125 -218 -1 -264 -71 -556 -191 -805
-461 -956 -1602 -1357 -2558 -899 -200 96 -398 237 -551 393 l-54 56 303 0
c344 0 365 3 427 65 98 98 77 261 -44 332 l-47 28 -590 0 c-585 0 -590 0 -630
-22 -50 -27 -80 -58 -100 -105 -23 -56 -23 -1180 0 -1236 64 -152 273 -172
370 -34 l30 44 3 294 c2 162 6 294 10 294 4 0 34 -27 67 -61 228 -232 565
-436 906 -549 241 -80 463 -114 739 -113 513 1 984 159 1398 467 137 102 366
331 468 468 292 392 458 866 467 1335 2 115 0 132 -20 168 -27 50 -58 80 -105
100 -48 19 -134 19 -173 -2z"/>
</g>
</svg>
