<?xml version="1.0" standalone="no"?>
<!DOCTYPE svg PUBLIC "-//W3C//DTD SVG 20010904//EN"
 "http://www.w3.org/TR/2001/REC-SVG-20010904/DTD/svg10.dtd">
<svg version="1.0" xmlns="http://www.w3.org/2000/svg"
 width="512.000000pt" height="512.000000pt" viewBox="0 0 512.000000 512.000000"
 preserveAspectRatio="xMidYMid meet">

<g transform="translate(0.000000,512.000000) scale(0.100000,-0.100000)"
fill="#000000" stroke="none">
<path d="M2280 4675 c-728 -105 -1337 -549 -1646 -1200 -85 -179 -141 -356
-181 -575 -25 -136 -25 -544 0 -680 87 -471 279 -844 601 -1166 321 -321 699
-516 1161 -600 121 -22 442 -30 576 -15 590 68 1126 375 1476 845 207 277 333
572 398 931 26 142 31 442 10 605 -117 926 -808 1662 -1722 1836 -117 22 -172
27 -358 30 -150 2 -250 -1 -315 -11z m405 -414 c61 -5 140 -15 177 -22 l68
-12 -120 -114 c-65 -63 -148 -148 -183 -191 -628 -758 -659 -1834 -75 -2628
48 -66 139 -167 228 -255 l148 -147 -106 -15 c-226 -33 -406 -29 -610 13 -585
121 -1078 559 -1267 1124 -326 972 268 2007 1271 2217 166 34 305 43 469 30z"/>
</g>
</svg>
