<?xml version="1.0" standalone="no"?>
<!DOCTYPE svg PUBLIC "-//W3C//DTD SVG 20010904//EN"
 "http://www.w3.org/TR/2001/REC-SVG-20010904/DTD/svg10.dtd">
<svg version="1.0" xmlns="http://www.w3.org/2000/svg"
 width="512.000000pt" height="512.000000pt" viewBox="0 0 512.000000 512.000000"
 preserveAspectRatio="xMidYMid meet">

<g transform="translate(0.000000,512.000000) scale(0.100000,-0.100000)"
fill="#000000" stroke="none">
<path d="M782 4953 c-7 -3 -19 -18 -27 -33 -12 -24 -15 -86 -15 -351 0 -282
-2 -320 -15 -315 -51 19 -145 27 -205 16 -271 -49 -421 -338 -304 -585 82
-175 285 -270 472 -221 l52 13 0 -629 0 -630 -32 9 c-18 4 -78 8 -133 8 -93 0
-105 -2 -166 -32 -121 -60 -208 -178 -230 -312 -27 -173 69 -354 230 -434 61
-30 73 -32 166 -32 55 0 115 4 133 8 l32 9 0 -327 0 -327 29 -29 29 -29 325 0
325 0 -14 -52 c-38 -145 10 -305 121 -406 207 -187 524 -125 648 127 30 61 32
73 32 166 0 55 -4 114 -8 132 l-8 32 331 3 332 3 19 24 c18 22 19 45 19 455
l0 433 -23 21 c-37 35 -78 29 -134 -19 -62 -54 -99 -69 -171 -69 -98 0 -180
49 -225 134 -31 58 -30 174 0 232 44 83 129 134 224 134 69 0 111 -16 168 -65
57 -48 99 -58 137 -31 18 14 19 33 24 398 l5 383 278 3 c152 1 277 1 277 -2 0
-2 -6 -21 -14 -42 -24 -70 -28 -135 -12 -213 28 -132 103 -229 224 -289 73
-35 81 -37 177 -37 97 0 104 2 177 38 172 84 263 265 226 443 -8 38 -18 77
-23 86 -7 17 13 18 329 18 321 0 337 1 356 20 11 11 22 30 25 42 3 13 4 209 3
436 l-3 414 -28 24 c-40 34 -70 30 -120 -15 -66 -61 -102 -75 -182 -75 -103 0
-181 48 -231 144 -25 47 -25 161 0 210 48 93 128 144 226 143 78 0 119 -16
183 -72 54 -46 91 -53 125 -21 11 11 24 35 27 52 3 18 5 215 3 436 l-3 404
-28 24 -28 24 -425 0 -425 0 -24 -25 c-39 -38 -33 -75 20 -135 42 -48 75 -124
75 -175 0 -55 -32 -127 -78 -175 -85 -87 -213 -102 -314 -35 -85 56 -130 164
-108 260 14 61 24 81 71 132 47 51 51 91 14 128 l-24 25 -826 0 -826 0 -24
-25 c-37 -36 -33 -75 15 -130 53 -62 71 -107 71 -182 0 -225 -273 -335 -427
-171 -53 55 -68 95 -68 173 0 77 18 124 73 183 17 18 34 44 37 56 7 28 -18 81
-41 90 -20 7 -854 7 -873 -1z m662 -189 c-22 -53 -29 -162 -14 -225 39 -168
169 -290 341 -321 171 -30 361 74 436 239 41 88 44 232 7 327 -6 15 19 16 270
16 l276 0 0 -276 c0 -259 -1 -276 -17 -269 -10 4 -45 11 -77 17 -167 30 -358
-76 -434 -239 -38 -83 -43 -223 -12 -305 61 -164 195 -264 365 -275 43 -3 90
1 123 10 l52 14 0 -273 0 -274 -360 0 c-297 0 -366 -3 -389 -15 -55 -28 -55
-79 -2 -143 51 -61 71 -109 71 -173 0 -108 -52 -192 -144 -235 -175 -82 -373
60 -353 251 6 64 27 108 75 157 44 46 49 95 14 131 -22 22 -25 22 -397 25
l-375 3 0 364 c0 350 -1 366 -20 385 -11 11 -30 22 -44 26 -24 6 -79 -16 -92
-37 -3 -6 -30 -22 -58 -35 -93 -43 -187 -28 -266 43 -192 172 -31 486 221 432
30 -7 70 -26 101 -50 62 -46 98 -50 133 -14 l25 24 0 366 0 365 279 0 280 0
-15 -36z"/>
</g>
</svg>
