<?xml version="1.0" standalone="no"?>
<!DOCTYPE svg PUBLIC "-//W3C//DTD SVG 20010904//EN"
 "http://www.w3.org/TR/2001/REC-SVG-20010904/DTD/svg10.dtd">
<svg version="1.0" xmlns="http://www.w3.org/2000/svg"
 width="512.000000pt" height="512.000000pt" viewBox="0 0 512.000000 512.000000"
 preserveAspectRatio="xMidYMid meet">

<g transform="translate(0.000000,512.000000) scale(0.100000,-0.100000)"
fill="#000000" stroke="none">
<path d="M3815 4652 c-28 -10 -70 -29 -95 -44 -26 -15 -414 -397 -911 -895
-853 -854 -867 -869 -882 -923 -9 -30 -61 -230 -117 -445 -85 -326 -101 -399
-98 -447 7 -103 83 -179 186 -186 48 -3 125 14 482 107 234 61 439 118 456
126 17 9 420 406 896 883 757 758 869 874 892 924 59 129 60 252 2 374 -30 63
-58 97 -203 245 -197 201 -260 251 -350 279 -81 25 -189 26 -258 2z m278 -560
l147 -147 -150 -150 -150 -150 -150 150 -150 150 147 147 c81 82 150 148 153
148 3 0 72 -66 153 -148z m-958 -1262 l-505 -505 -202 -52 c-111 -29 -203 -51
-205 -50 -1 2 21 93 49 203 l51 199 506 507 506 508 152 -152 153 -153 -505
-505z"/>
<path d="M975 4259 c-145 -22 -288 -98 -385 -207 -61 -68 -134 -213 -150 -297
-8 -43 -10 -458 -8 -1440 l3 -1380 22 -65 c66 -191 222 -347 413 -413 l65 -22
1389 -3 c1547 -3 1439 -7 1591 67 100 49 179 120 243 216 105 155 114 225 110
810 -3 439 -4 451 -25 490 -40 76 -105 115 -188 115 -85 0 -160 -48 -196 -125
-17 -37 -19 -74 -19 -511 l0 -472 -28 -53 c-20 -39 -41 -62 -77 -84 l-48 -30
-1306 -3 c-967 -2 -1320 0 -1360 8 -77 17 -144 84 -161 161 -8 40 -10 393 -8
1360 l3 1306 30 48 c22 36 45 57 84 77 l53 28 469 0 c512 0 511 0 572 58 51
48 70 97 65 168 -5 78 -41 136 -108 174 l-45 25 -470 1 c-258 1 -497 -2 -530
-7z"/>
</g>
</svg>
